<svg width="24" height="24" viewBox="0 0 24 24" fill="none" xmlns="http://www.w3.org/2000/svg">
<path d="M12 4C7.582 4 4 7.582 4 12C4 16.418 7.582 20 12 20C16.418 20 20 16.418 20 12C20 7.582 16.418 4 12 4ZM2 12C2 6.477 6.477 2 12 2C17.523 2 22 6.477 22 12C22 17.523 17.523 22 12 22C6.477 22 2 17.523 2 12ZM12 6.757C12.552 6.757 13 7.205 13 7.757V11H16.243C16.795 11 17.243 11.448 17.243 12C17.243 12.552 16.795 13 16.243 13H13V16.243C13 16.795 12.552 17.243 12 17.243C11.448 17.243 11 16.795 11 16.243V13H7.757C7.205 13 6.757 12.552 6.757 12C6.757 11.448 7.205 11 7.757 11H11V7.757C11 7.205 11.448 6.757 12 6.757Z" fill-rule="evenodd" clip-rule="evenodd" fill="#3C4242"/>
</svg>
