<svg width="24" height="24" viewBox="0 0 24 24" fill="none" xmlns="http://www.w3.org/2000/svg">
<path d="M12 4C7.582 4 4 7.582 4 12C4 16.418 7.582 20 12 20C16.418 20 20 16.418 20 12C20 7.582 16.418 4 12 4ZM2 12C2 6.477 6.477 2 12 2C17.523 2 22 6.477 22 12C22 17.523 17.523 22 12 22C6.477 22 2 17.523 2 12ZM12.086 8.583C11.688 8.568 11.301 8.711 11.008 8.982C10.716 9.252 10.543 9.628 10.528 10.026C10.507 10.578 10.043 11.008 9.491 10.987C8.939 10.966 8.509 10.502 8.53 9.95C8.565 9.022 8.968 8.146 9.649 7.515C10.33 6.883 11.235 6.549 12.163 6.584C13.091 6.62 13.967 7.022 14.598 7.704C15.226 8.382 15.561 9.281 15.529 10.205C15.521 10.659 15.423 11.107 15.241 11.523C15.057 11.943 14.791 12.322 14.459 12.638C14.127 12.953 13.735 13.199 13.306 13.362C13.206 13.4 13.103 13.433 13 13.461V14C13 14.552 12.552 15 12 15C11.448 15 11 14.552 11 14V12.582C11 12.31 11.111 12.05 11.306 11.862C11.502 11.673 11.766 11.573 12.037 11.583C12.229 11.59 12.42 11.558 12.599 11.491C12.778 11.423 12.942 11.32 13.081 11.188C13.22 11.056 13.332 10.897 13.409 10.722C13.485 10.546 13.526 10.357 13.529 10.165L13.53 10.141C13.545 9.743 13.401 9.355 13.131 9.063C12.86 8.771 12.484 8.598 12.086 8.583ZM10.99 17.008C10.99 16.456 11.438 16.008 11.99 16.008H12C12.552 16.008 13 16.456 13 17.008C13 17.56 12.552 18.008 12 18.008H11.99C11.438 18.008 10.99 17.56 10.99 17.008Z" fill-rule="evenodd" clip-rule="evenodd" fill="#3C4242"/>
</svg>
