<svg width="24" height="24" viewBox="0 0 24 24" fill="none" xmlns="http://www.w3.org/2000/svg">
<path d="M11.293 4.293C11.683 3.902 12.317 3.902 12.707 4.293L16.707 8.293C17.098 8.683 17.098 9.317 16.707 9.707C16.317 10.098 15.683 10.098 15.293 9.707L12 6.414L8.707 9.707C8.317 10.098 7.683 10.098 7.293 9.707C6.902 9.317 6.902 8.683 7.293 8.293L11.293 4.293ZM7.293 14.293C7.683 13.902 8.317 13.902 8.707 14.293L12 17.586L15.293 14.293C15.683 13.902 16.317 13.902 16.707 14.293C17.098 14.683 17.098 15.317 16.707 15.707L12.707 19.707C12.317 20.098 11.683 20.098 11.293 19.707L7.293 15.707C6.902 15.317 6.902 14.683 7.293 14.293Z" fill-rule="evenodd" clip-rule="evenodd" fill="#3C4242"/>
</svg>
